<svg height="100%" width="100%" xmlns="http://www.w3.org/2000/svg" viewBox="0 0 512 512" fill="#E53E3E" stroke="#E53E3E"><path d="M224 241H72c-8.284 0-15 6.716-15 15v80c0 8.284 6.716 15 15 15h112c5.682 0 10.875-3.21 13.417-8.292l40-80A15 15 0 0 0 224 241Zm-49.271 80H87v-50h112.729zM440 241H288a15 15 0 0 0-13.417 21.708l40 80A15.001 15.001 0 0 0 328 351h112c8.284 0 15-6.716 15-15v-80c0-8.284-6.716-15-15-15zm-15 80h-87.729l-25-50H425Z"></path><path d="m506.544 188.428-97-80A15 15 0 0 0 385 120v65H127v-65a14.998 14.998 0 0 0-8.603-13.567 14.997 14.997 0 0 0-15.941 1.995l-97 80A15.001 15.001 0 0 0 0 200v162c0 24.813 20.187 45 45 45h160.459c17.154 0 32.577-9.532 40.25-24.875L256 361.542l10.292 20.583c7.672 15.343 23.095 24.875 40.25 24.875H467c24.813 0 45-20.187 45-45V200c0-4.478-2.001-8.722-5.456-11.572zM415 151.815 455.237 185H415ZM97 185H56.763L97 151.815Zm370 192H306.541a14.92 14.92 0 0 1-13.417-8.292l-23.708-47.417a15 15 0 0 0-26.833.001l-23.708 47.416A14.917 14.917 0 0 1 205.458 377H45c-8.271 0-15-6.729-15-15V215h452v147c0 8.271-6.729 15-15 15z"></path></svg>
