<svg height="100%" width="100%" xmlns="http://www.w3.org/2000/svg" viewBox="0 0 512 512" fill="#DD6B20" stroke="#DD6B20"><path d="M255 16C114.06 16 0 130.05 0 271v150c0 24.813 20.187 45 45 45h17.58c6.192 17.458 22.865 30 42.42 30 24.813 0 45-20.187 45-45V331c0-24.813-20.187-45-45-45a44.79 44.79 0 0 0-15 2.58V271c0-90.847 73.891-165 165-165 92.084 0 167 74.019 167 165v17.58a44.785 44.785 0 0 0-15-2.58c-24.813 0-45 20.187-45 45v120c0 24.813 20.187 45 45 45 19.555 0 36.228-12.542 42.42-30H467c24.813 0 45-20.187 45-45V271c0-141.759-117.098-255-257-255Zm167 435c0 8.271-6.729 15-15 15s-15-6.729-15-15V331c0-8.271 6.729-15 15-15s15 6.729 15 15zM60 436H45c-8.271 0-15-6.729-15-15v-60c0-8.271 6.729-15 15-15h15zm45-120c8.271 0 15 6.729 15 15v120c0 8.271-6.729 15-15 15s-15-6.729-15-15V331c0-8.271 6.729-15 15-15zm-45-45v45H45a44.79 44.79 0 0 0-15 2.58V271c0-56.646 21.05-108.463 55.728-148.06l21.256 21.256C77.713 178.316 60 222.626 60 271ZM255 76c-48.374 0-92.685 17.712-126.803 46.984l-21.256-21.256C146.537 67.05 198.354 46 255 46c57.324 0 109.744 21.181 149.739 56.048l-21.447 21.447C347.408 92.771 302.37 76 255 76Zm227 345c0 8.271-6.729 15-15 15h-15v-90h15c8.271 0 15 6.729 15 15zm0-102.42a44.785 44.785 0 0 0-15-2.58h-15v-45c0-46.701-16.737-91.006-47.424-126.363l21.435-21.435C460.859 162.765 482 214.479 482 271Z"></path></svg>