<svg height="100%" width="100%" xmlns="http://www.w3.org/2000/svg" viewBox="0 0 512 512" fill="#D69E2E" stroke="#D69E2E"><path d="M256 60.25C148.063 60.25 60.25 148.063 60.25 256S148.063 451.75 256 451.75 451.75 363.937 451.75 256 363.937 60.25 256 60.25Zm0 361.5c-91.395 0-165.75-74.355-165.75-165.75S164.605 90.25 256 90.25 421.75 164.605 421.75 256 347.395 421.75 256 421.75z"></path><path d="M256 180.75c-41.493 0-75.25 33.757-75.25 75.25s33.757 75.25 75.25 75.25 75.25-33.757 75.25-75.25-33.757-75.25-75.25-75.25zm0 120.5c-24.951 0-45.25-20.299-45.25-45.25s20.299-45.25 45.25-45.25 45.25 20.299 45.25 45.25-20.299 45.25-45.25 45.25z"></path><path d="M330.6 160.188c-5.858 5.857-5.858 15.355 0 21.213 19.927 19.927 30.9 46.42 30.9 74.6 0 28.18-10.974 54.673-30.9 74.6-5.858 5.857-5.858 15.355 0 21.213a14.95 14.95 0 0 0 10.606 4.394c3.838 0 7.678-1.465 10.606-4.394C377.405 326.221 391.5 292.193 391.5 256c0-36.193-14.095-70.221-39.688-95.812-5.857-5.858-15.355-5.858-21.212 0zM150.5 256c0-28.18 10.974-54.674 30.9-74.6 5.858-5.857 5.858-15.355 0-21.213-5.858-5.858-15.355-5.858-21.213 0C134.594 185.779 120.5 219.807 120.5 256c0 36.193 14.094 70.221 39.687 95.812a14.954 14.954 0 0 0 10.606 4.394c3.838 0 7.678-1.465 10.606-4.394 5.858-5.857 5.858-15.355 0-21.213C161.474 310.674 150.5 284.18 150.5 256Z"></path><path d="M486.223 368.058C503.327 332.983 512 295.282 512 256c0-39.282-8.673-76.983-25.777-112.058a12.335 12.335 0 0 1 2.569-14.359l-.001.001c15.784-15.11 24.208-36.318 23.112-58.185-.93-18.55-8.739-36.062-21.989-49.313C476.663 8.836 459.15 1.026 440.601.097c-21.872-1.089-43.074 7.329-58.184 23.111a12.333 12.333 0 0 1-14.359 2.569C332.983 8.673 295.282 0 256 0c-39.282 0-76.983 8.673-112.057 25.777a12.332 12.332 0 0 1-14.359-2.568C114.472 7.424 93.26-.997 71.4.097c-18.55.93-36.064 8.739-49.314 21.989C8.835 35.337 1.026 52.851.096 71.401c-1.095 21.865 7.329 43.071 23.112 58.183a12.332 12.332 0 0 1 2.57 14.358C8.673 179.017 0 216.718 0 256c0 39.282 8.673 76.983 25.778 112.058a12.333 12.333 0 0 1-2.569 14.358C7.425 397.527-.999 418.733.096 440.6c.93 18.55 8.739 36.063 21.989 49.314 13.25 13.25 30.764 21.06 49.314 21.989 21.869 1.091 43.073-7.328 58.185-23.111a12.328 12.328 0 0 1 14.359-2.569C179.017 503.327 216.718 512 256 512s76.983-8.673 112.058-25.777a12.333 12.333 0 0 1 14.358 2.568c15.11 15.783 36.308 24.206 58.185 23.112 18.55-.93 36.062-8.739 49.313-21.989 13.25-13.251 21.06-30.764 21.989-49.313 1.096-21.866-7.328-43.074-23.111-58.184a12.333 12.333 0 0 1-2.569-14.359zm-18.178 36.028c9.491 9.086 14.556 21.848 13.896 35.013-1.146 22.878-19.964 41.696-42.842 42.842-13.155.655-25.927-4.405-35.014-13.896-12.795-13.361-32.558-16.892-49.178-8.786C323.964 474.349 290.687 482 256 482s-67.964-7.651-98.907-22.742a42.39 42.39 0 0 0-18.608-4.314c-11.278 0-22.36 4.526-30.569 13.101-9.088 9.492-21.851 14.551-35.014 13.896-22.877-1.146-41.695-19.965-42.842-42.843-.66-13.164 4.405-25.926 13.896-35.012 13.362-12.794 16.893-32.558 8.787-49.179C37.651 323.964 30 290.687 30 256s7.651-67.964 22.742-98.908c8.105-16.621 4.574-36.384-8.788-49.178-9.49-9.086-14.555-21.848-13.896-35.012 1.147-22.878 19.965-41.697 42.843-42.843a45.285 45.285 0 0 1 35.014 13.896c12.793 13.362 32.556 16.891 49.178 8.786C188.036 37.651 221.313 30 256 30s67.964 7.651 98.907 22.742c16.621 8.105 36.383 4.576 49.179-8.787 9.087-9.49 21.856-14.554 35.013-13.896 22.878 1.146 41.696 19.964 42.842 42.842.66 13.165-4.404 25.927-13.896 35.013l-.001.001c-13.361 12.794-16.892 32.557-8.786 49.178C474.349 188.036 482 221.313 482 256s-7.651 67.964-22.742 98.907c-8.106 16.621-4.575 36.384 8.787 49.179z"></path></svg>