<svg height="100%" width="100%" xmlns="http://www.w3.org/2000/svg" viewBox="0 0 512 512" fill="#38A169" stroke="#38A169"><path d="M467 31H45C20.187 31 0 51.187 0 76v360c0 24.813 20.187 45 45 45h422c24.813 0 45-20.187 45-45V76c0-24.813-20.187-45-45-45ZM151 61h150v40H151Zm150 0h60v40h-60zm181 375c0 8.271-6.729 15-15 15H45c-8.271 0-15-6.729-15-15V76c0-8.271 6.729-15 15-15h76v55c0 8.284 6.716 15 15 15h240c8.284 0 15-6.716 15-15V61h76c8.271 0 15 6.729 15 15z"></path><path d="M433 193.58V176c0-8.284-6.716-15-15-15-8.284 0-15 6.716-15 15v17.58c-17.459 6.192-30 22.865-30 42.42 0 19.555 12.541 36.228 30 42.42V406c0 8.284 6.716 15 15 15 8.284 0 15-6.716 15-15V278.42c17.459-6.192 30-22.865 30-42.42 0-19.555-12.541-36.228-30-42.42zM418 251c-8.271 0-15-6.729-15-15s6.729-15 15-15 15 6.729 15 15-6.729 15-15 15zM325 303.58V176c0-8.284-6.716-15-15-15-8.284 0-15 6.716-15 15v127.58c-17.459 6.192-30 22.865-30 42.42 0 19.555 12.541 36.228 30 42.42V406c0 8.284 6.716 15 15 15 8.284 0 15-6.716 15-15v-17.58c17.459-6.192 30-22.865 30-42.42 0-19.555-12.541-36.228-30-42.42zM310 361c-8.271 0-15-6.729-15-15s6.729-15 15-15 15 6.729 15 15-6.729 15-15 15zM217 193.58V176c0-8.284-6.716-15-15-15-8.284 0-15 6.716-15 15v17.58c-17.459 6.192-30 22.865-30 42.42 0 19.555 12.541 36.228 30 42.42V406c0 8.284 6.716 15 15 15 8.284 0 15-6.716 15-15V278.42c17.459-6.192 30-22.865 30-42.42 0-19.555-12.541-36.228-30-42.42zM202 251c-8.271 0-15-6.729-15-15s6.729-15 15-15 15 6.729 15 15-6.729 15-15 15zM109 303.58V176c0-8.284-6.716-15-15-15-8.284 0-15 6.716-15 15v127.58c-17.459 6.192-30 22.865-30 42.42 0 19.555 12.541 36.228 30 42.42V406c0 8.284 6.716 15 15 15 8.284 0 15-6.716 15-15v-17.58c17.459-6.192 30-22.865 30-42.42 0-19.555-12.541-36.228-30-42.42zM94 361c-8.271 0-15-6.729-15-15s6.729-15 15-15 15 6.729 15 15-6.729 15-15 15zM898.119 507.606A14.95 14.95 0 0 0 908.725 512a14.95 14.95 0 0 0 10.606-4.394l40-40c5.858-5.857 5.858-15.355 0-21.213-5.857-5.857-15.355-5.857-21.213 0l-14.393 14.394V387c0-8.284-6.716-15-15-15-8.284 0-15 6.716-15 15v73.787l-14.394-14.394c-5.857-5.857-15.355-5.857-21.213 0-5.858 5.857-5.858 15.355 0 21.213zM949.544 297.606l14.394-14.393V357c0 8.284 6.716 15 15 15 8.284 0 15-6.716 15-15v-73.787l14.394 14.394a14.953 14.953 0 0 0 10.606 4.393 14.95 14.95 0 0 0 10.606-4.394c5.858-5.857 5.858-15.355 0-21.213l-40-40c-5.857-5.857-15.355-5.857-21.213 0l-40 40c-5.858 5.857-5.858 15.355 0 21.213 5.858 5.858 15.356 5.858 21.213 0z"></path></svg>