<svg height="100%" width="100%" xmlns="http://www.w3.org/2000/svg" viewBox="0 0 512 512" fill="#319795" stroke="#319795"><path d="M291.25 413.565v25.8c0 24.951-20.299 45.25-45.25 45.25h-80.375c-24.951 0-45.25-20.299-45.25-45.25.528-64.81 11.878-103.767-30.19-105.375-8-.306-14.913 0-26.747 0-17.293 0-31.546 13.247-33.156 30.125H15c-8.284 0-15 6.716-15 15 0 8.284 6.716 15 15 15h15.125v26.938c0 18.368 14.944 33.313 33.313 33.313H91.88c6.972 34.331 37.387 60.25 73.745 60.25H246c41.493 0 75.25-33.757 75.25-75.25v-25.8zm-231.125 7.488v-53.75a3.317 3.317 0 0 1 3.313-3.313h26.938v60.375H63.438a3.316 3.316 0 0 1-3.313-3.312z" style="opacity: 1;"></path><circle cx="305.223" cy="206.777" r="191.777" style="opacity: 1; fill: none; fill-opacity: 1; fill-rule: evenodd; stroke-width: 30; stroke-dasharray: none; stroke-opacity: 1;"></circle><rect width="29.927" height="380.317" x="291.323" y="3.151" ry="0" style="fill-rule: evenodd; stroke: none; stroke-width: 30; stroke-dasharray: none; stroke-opacity: 1;"></rect><rect width="29.927" height="343.347" x="201.073" y="33.207" ry="0" style="fill-rule: evenodd; stroke: none; stroke-width: 30; stroke-dasharray: none; stroke-opacity: 1;"></rect><rect width="29.927" height="343.347" x="381.644" y="32.605" ry="0" style="fill-rule: evenodd; stroke: none; stroke-width: 30; stroke-dasharray: none; stroke-opacity: 1;"></rect><rect width="29.927" height="380.317" x="191.813" y="-497" ry="0" transform="rotate(90)" style="fill-rule: evenodd; stroke: none; stroke-width: 30; stroke-dasharray: none; stroke-opacity: 1;"></rect><rect width="29.927" height="342.332" x="283.938" y="-473.423" ry="0" transform="rotate(90)" style="fill-opacity: 1; fill-rule: evenodd; stroke: none; stroke-width: 30; stroke-dasharray: none; stroke-opacity: 1;"></rect><rect width="29.927" height="342.332" x="103.005" y="-472.295" ry="0" transform="rotate(90)" style="fill-opacity: 1; fill-rule: evenodd; stroke: none; stroke-width: 30; stroke-dasharray: none; stroke-opacity: 1;"></rect></svg>