<svg height="100%" width="100%" xmlns="http://www.w3.org/2000/svg" viewBox="0 0 512 512" fill="#3182CE" stroke="#3182CE"><path d="M-55 31h-422c-24.813 0-45 20.187-45 45v360c0 24.813 20.187 45 45 45h422c24.813 0 45-20.187 45-45V76c0-24.813-20.187-45-45-45Zm-316 30h150v40h-150Zm150 0h60v40h-60zm181 375c0 8.271-6.729 15-15 15h-422c-8.271 0-15-6.729-15-15V76c0-8.271 6.729-15 15-15h76v55c0 8.284 6.716 15 15 15h240c8.284 0 15-6.716 15-15V61h76c8.271 0 15 6.729 15 15z"></path><path d="M-89 193.58V176c0-8.284-6.716-15-15-15-8.284 0-15 6.716-15 15v17.58c-17.459 6.192-30 22.865-30 42.42 0 19.555 12.541 36.228 30 42.42V406c0 8.284 6.716 15 15 15 8.284 0 15-6.716 15-15V278.42c17.459-6.192 30-22.865 30-42.42 0-19.555-12.541-36.228-30-42.42zM-104 251c-8.271 0-15-6.729-15-15s6.729-15 15-15 15 6.729 15 15-6.729 15-15 15zM-197 303.58V176c0-8.284-6.716-15-15-15-8.284 0-15 6.716-15 15v127.58c-17.459 6.192-30 22.865-30 42.42 0 19.555 12.541 36.228 30 42.42V406c0 8.284 6.716 15 15 15 8.284 0 15-6.716 15-15v-17.58c17.459-6.192 30-22.865 30-42.42 0-19.555-12.541-36.228-30-42.42zM-212 361c-8.271 0-15-6.729-15-15s6.729-15 15-15 15 6.729 15 15-6.729 15-15 15zM-305 193.58V176c0-8.284-6.716-15-15-15-8.284 0-15 6.716-15 15v17.58c-17.459 6.192-30 22.865-30 42.42 0 19.555 12.541 36.228 30 42.42V406c0 8.284 6.716 15 15 15 8.284 0 15-6.716 15-15V278.42c17.459-6.192 30-22.865 30-42.42 0-19.555-12.541-36.228-30-42.42zM-320 251c-8.271 0-15-6.729-15-15s6.729-15 15-15 15 6.729 15 15-6.729 15-15 15zM-413 303.58V176c0-8.284-6.716-15-15-15-8.284 0-15 6.716-15 15v127.58c-17.459 6.192-30 22.865-30 42.42 0 19.555 12.541 36.228 30 42.42V406c0 8.284 6.716 15 15 15 8.284 0 15-6.716 15-15v-17.58c17.459-6.192 30-22.865 30-42.42 0-19.555-12.541-36.228-30-42.42zM-428 361c-8.271 0-15-6.729-15-15s6.729-15 15-15 15 6.729 15 15-6.729 15-15 15zM376.119 507.606A14.95 14.95 0 0 0 386.725 512a14.95 14.95 0 0 0 10.606-4.394l40-40c5.858-5.857 5.858-15.355 0-21.213-5.857-5.857-15.355-5.857-21.213 0l-14.393 14.394V387c0-8.284-6.716-15-15-15-8.284 0-15 6.716-15 15v73.787l-14.394-14.394c-5.857-5.857-15.355-5.857-21.213 0-5.858 5.857-5.858 15.355 0 21.213zM427.544 297.606l14.394-14.393V357c0 8.284 6.716 15 15 15 8.284 0 15-6.716 15-15v-73.787l14.394 14.394A14.953 14.953 0 0 0 496.938 302a14.95 14.95 0 0 0 10.606-4.394c5.858-5.857 5.858-15.355 0-21.213l-40-40c-5.857-5.857-15.355-5.857-21.213 0l-40 40c-5.858 5.857-5.858 15.355 0 21.213 5.858 5.858 15.356 5.858 21.213 0z"></path><path d="M371.863 7.286c0-11.656-11.772-19.625-22.594-15.297L129.6 79.857a16.474 16.474 0 0 0-10.356 15.297v239.518a65.47 65.47 0 0 0-32.95-8.866c-36.338 0-65.901 29.563-65.901 65.9 0 36.338 29.563 65.901 65.9 65.901 36.338 0 65.901-29.563 65.901-65.9V194.175l186.719-74.688v127.317a65.47 65.47 0 0 0-32.95-8.866c-36.338 0-65.901 29.563-65.901 65.901 0 36.338 29.563 65.9 65.9 65.9 36.338 0 65.901-29.562 65.901-65.9zM86.293 424.657c-18.168 0-32.95-14.782-32.95-32.95 0-18.17 14.782-32.95 32.95-32.95 18.17 0 32.951 14.78 32.951 32.95 0 18.168-14.782 32.95-32.95 32.95zm65.901-265.97v-52.38L338.913 31.62v52.379zm153.769 178.102c-18.17 0-32.95-14.781-32.95-32.95 0-18.169 14.78-32.95 32.95-32.95 18.168 0 32.95 14.781 32.95 32.95 0 18.169-14.782 32.95-32.95 32.95z" transform="translate(-20.393 9.205)" style="stroke-width: 1.09834;"></path></svg>