<svg height="100%" width="100%" xmlns="http://www.w3.org/2000/svg" viewBox="0 0 512 512" fill="#00B5D8" stroke="#00B5D8"><path d="M497 110.07H269.719L18.73 45.66a14.994 14.994 0 0 0-12.926 2.676A15.013 15.013 0 0 0 0 60.188v391.625a15.002 15.002 0 0 0 18.73 14.53l250.989-64.41h227.28c8.286 0 15.001-6.718 15.001-15V125.07c0-8.285-6.715-15-15-15zM30 79.523l222.824 57.184v238.586L30 432.477Zm332.012 292.41v-96.398h40.8v96.399zm119.988 0h-49.188V260.536c0-8.281-6.718-15-15-15h-70.8c-8.282 0-15 6.719-15 15v111.399h-49.188V140.07H482z" style="stroke-width: 1.33333;"></path><path d="M204.188 185.344 98.27 162.078a15.016 15.016 0 0 0-12.622 2.961 15.008 15.008 0 0 0-5.597 11.692v158.542a15 15 0 0 0 15 15c1.07 0 2.148-.117 3.218-.351l105.918-23.266a14.996 14.996 0 0 0 11.782-14.648V199.996a15 15 0 0 0-11.781-14.652zm-94.137 10.039 22.957 5.043v111.148l-22.957 5.043zm75.918 104.562-22.961 5.043v-97.972l22.96 5.043z" style="stroke-width: 1.33333;"></path></svg>
