<svg height="100%" width="100%" xmlns="http://www.w3.org/2000/svg" viewBox="0 0 512 512" fill="#805AD5" stroke="#805AD5"><path d="M256 0C114.51 0 0 114.497 0 256c0 141.49 114.495 256 256 256 141.491 0 256-114.497 256-256C512 114.509 397.503 0 256 0Zm0 478.609c-122.746 0-222.609-99.862-222.609-222.609 0-122.747 99.861-222.609 222.609-222.609S478.609 133.254 478.609 256c0 122.746-99.863 222.609-222.609 222.609z"></path><path d="m146.753 270.452 155.778 90.01c11.128 6.426 25.048-1.63 25.048-14.456v-180.02c0-12.922-14.01-20.833-25.048-14.456l-155.778 90.01c-11.116 6.424-11.102 22.496 0 28.912zm147.435-75.537v122.162l-105.711-61.08Z"></path></svg>