<svg height="100%" width="100%" xmlns="http://www.w3.org/2000/svg" viewBox="0 0 512 512" fill="#D53F8C" stroke="#D53F8C"><defs><path id="stereo-panner_svg__a" d="M1494.824 12.728h239.002v241.831h-239.002z"></path></defs><g style="stroke-width: 1.33526;"><path d="M1385.333 144C1236.823 144 1116 264.823 1116 413.333c0 148.51 120.823 269.334 269.333 269.334 148.51 0 269.334-120.823 269.334-269.334 0-148.51-120.823-269.333-269.334-269.333Zm0 498.667c-126.453 0-229.333-102.88-229.333-229.334C1156 286.88 1258.88 184 1385.333 184s229.334 102.88 229.334 229.333-102.88 229.334-229.334 229.334zM1385.333 40c80.49 0 156.162 31.344 213.073 88.255l28.287-28.281C1562.224 35.505 1476.505 0 1385.333 0c-91.172 0-176.89 35.505-241.359 99.974l28.286 28.281C1229.172 71.344 1304.844 40 1385.333 40Zm0 0" transform="matrix(.74892 0 0 .74892 -781.87 0)" style="stroke-width: 1.78035;"></path><path transform="scale(-.74892 .74892) rotate(45 522 1260.22)" d="M-956.641 1251.918h186.668v39.866h-186.668z" style="stroke: none;"></path><text transform="matrix(1 0 0 1 -1056.143 10.305)" style="font-style: normal; font-variant: normal; font-weight: 700; font-stretch: normal; font-size: 96px; line-height: 1.25; font-family: Helvetica, sans-serif; white-space: pre; display: inline;"><tspan x="1067" y="169.384"><tspan>L</tspan></tspan></text><text transform="matrix(1 0 0 1 -1071.014 79.377)" style="font-style: normal; font-variant: normal; font-weight: 700; font-stretch: normal; font-size: 96px; line-height: 1.25; font-family: Helvetica, sans-serif; white-space: pre; display: inline;"><tspan x="1494.824" y="100.312">R</tspan></text></g></svg>