<svg height="100%" width="100%" xmlns="http://www.w3.org/2000/svg" viewBox="0 0 512 512" fill="#E53E3E" stroke="#E53E3E"><path d="M256 0C114.51 0 0 114.497 0 256c0 141.49 114.495 256 256 256 141.491 0 256-114.497 256-256C512 114.509 397.503 0 256 0Zm0 478.609c-122.746 0-222.609-99.862-222.609-222.609 0-122.747 99.861-222.609 222.609-222.609S478.609 133.254 478.609 256c0 122.746-99.863 222.609-222.609 222.609z"></path><path d="m416.8 241.548-155.778-90.01c-11.128-6.426-25.048 1.63-25.048 14.456v70.537l43.487 20.153-43.487 19.445v69.885c0 12.922 14.01 20.833 25.048 14.456L416.8 270.46c11.116-6.424 11.102-22.496 0-28.912zm-147.435 75.537V194.923l105.71 61.08z"></path><path d="m305.695 241.548-155.778-90.01c-11.128-6.426-25.048 1.63-25.048 14.456v180.02c0 12.922 14.01 20.833 25.048 14.456l155.778-90.01c11.116-6.424 11.102-22.496 0-28.912zM158.26 317.085V194.923l105.71 61.08z"></path></svg>