<svg height="100%" width="100%" xmlns="http://www.w3.org/2000/svg" viewBox="0 0 512 512" fill="#D69E2E" stroke="#D69E2E"><path d="M265 160h-15V65c0-35.841-29.159-65-65-65h-60C89.159 0 60 29.159 60 65v95H45c-24.813 0-45 20.187-45 45v40c0 62.118 45.549 113.791 105 123.393V420H85c-35.841 0-65 29.159-65 65v12c0 8.284 6.716 15 15 15h240c8.284 0 15-6.716 15-15v-12c0-35.841-29.159-65-65-65h-20v-51.607c59.451-9.602 105-61.275 105-123.393v-40c0-24.813-20.187-45-45-45zM125 30h60c19.299 0 35 15.701 35 35v15h-25c-8.284 0-15 6.716-15 15 0 8.284 6.716 15 15 15h25v30h-25c-8.284 0-15 6.716-15 15 0 8.284 6.716 15 15 15h25v30h-25c-8.284 0-15 6.716-15 15 0 8.284 6.716 15 15 15h25v15c0 19.299-15.701 35-35 35h-60c-19.299 0-35-15.701-35-35v-15h25c8.284 0 15-6.716 15-15 0-8.284-6.716-15-15-15H90v-30h25c8.284 0 15-6.716 15-15 0-8.284-6.716-15-15-15H90v-30h25c8.284 0 15-6.716 15-15 0-8.284-6.716-15-15-15H90V65c0-19.299 15.701-35 35-35Zm134.873 452H50.127c1.527-17.899 16.585-32 34.873-32h140c18.288 0 33.346 14.101 34.873 32zM135 420v-50h40v50zm145-175c0 52.383-42.617 95-95 95h-60c-52.383 0-95-42.617-95-95v-40c0-8.271 6.729-15 15-15h15v55c0 35.841 29.159 65 65 65h60c35.841 0 65-29.159 65-65v-55h15c8.271 0 15 6.729 15 15zM407 0c-57.897 0-105 47.103-105 105s47.103 105 105 105 105-47.103 105-105S464.897 0 407 0Zm0 30c15.264 0 29.47 4.594 41.33 12.457L344.458 146.33C336.594 134.47 332 120.264 332 105c0-41.355 33.645-75 75-75Zm0 150c-15.264 0-29.47-4.594-41.33-12.457L469.542 63.67C477.406 75.53 482 89.736 482 105c0 41.355-33.645 75-75 75z"></path></svg>