<svg height="100%" width="100%" xmlns="http://www.w3.org/2000/svg" viewBox="0 0 512 512" fill="#38A169" stroke="#38A169"><path d="m224.511 85.363-113.319 87.168H50.087C22.469 172.531 0 195 0 222.618V289.4c0 27.618 22.469 50.087 50.087 50.087h61.105l113.319 87.168c21.916 16.859 53.75 1.274 53.75-26.466v-288.36c0-27.695-31.809-43.348-53.75-26.466zM100.174 306.096H50.087c-9.206 0-16.696-7.49-16.696-16.696v-66.783c0-9.206 7.49-16.696 16.696-16.696h50.087zm144.696 94.093L133.566 314.57V197.447l111.304-85.619ZM438.649 78.916c-6.52-6.52-17.092-6.52-23.611 0-6.52 6.52-6.52 17.091 0 23.611 40.995 40.995 63.57 95.499 63.57 153.473 0 57.974-22.576 112.479-63.57 153.473-6.52 6.52-6.52 17.091 0 23.611 6.519 6.52 17.091 6.52 23.611 0C485.95 385.783 512 322.894 512 256s-26.05-129.783-73.351-177.084Z"></path><path d="M391.427 126.139c-6.518-6.519-17.09-6.52-23.611 0-6.52 6.52-6.52 17.091 0 23.611 58.586 58.586 58.586 153.914 0 212.501-6.52 6.52-6.52 17.091 0 23.611 6.519 6.519 17.091 6.52 23.611 0 71.606-71.605 71.606-188.118 0-259.723z"></path><path d="M344.204 173.361c-6.519-6.52-17.091-6.52-23.611 0s-6.52 17.091 0 23.611c32.548 32.549 32.548 85.507 0 118.056-6.52 6.52-6.52 17.091 0 23.611 6.519 6.52 17.091 6.521 23.611 0 45.567-45.567 45.567-119.71 0-165.278z"></path></svg>